{"title":"Hellboy(2004)Mp-4[Dascubadude]","uid":12337801,"size":1207542727,"categoryP":"video","categoryS":"movies","magnet":"?xt=urn:btih:db0205cc8bd4cdc44f4b31ee1cb92e1e62aa6e9f&amp;dn=Hellboy%282004%29Mp-4%5BDascubadude%5D&amp;tr=udp%3A%2F%2Ftracker.openbittorrent.com%3A80&amp;tr=udp%3A%2F%2Fopen.demonii.com%3A1337&amp;tr=udp%3A%2F%2Ftracker.coppersurfer.tk%3A6969&amp;tr=udp%3A%2F%2Fexodus.desync.com%3A6969","seeders":0,"leechers":0,"uploader":"dascuba","files":1,"time":1441263387,"description":"Hellboy (2004)\nPG-13  |  122 min  |  Action, Fantasy, Sci-Fi  |  2 April 2004 (USA)\n6.8 Your rating:   -/10   Ratings: 6.8/10 from 226,745 users   Metascore: 72/100 \nReviews: 594 user | 240 critic | 37 from Metacritic.com\nA demon, raised from infancy after being conjured by and rescued from the Nazis, grows up to become a defender against the forces of darkness.\n\nDirector: Guillermo del Toro\nWriters: Guillermo del Toro (screenplay), Guillermo del Toro (screen story), 2 more credits Â»\nStars: Ron Perlman, Doug Jones, Selma Blair\n\n General\nComplete name                            : CHellboyHELLBOY_Title1.mp4\nFormat                                   : MPEG-4\nFormat profile                           : Base Media\nCodec ID                                 : isom\nFile size                                : 1.12 GiB\nDuration                                 : 2h 1mn\nOverall bit rate                         : 1 321 Kbps\nMovie name                               : HELLBOY_Title1\nWriting application                      : Lavf54.6.100\n\nVideo\nID                                       : 1\nFormat                                   : AVC\nFormat/Info                              : Advanced Video Codec\nFormat profile                           : Baseline@L3\nFormat settings, CABAC                   : No\nFormat settings, ReFrames                : 6 frames\nCodec ID                                 : avc1\nCodec ID/Info                            : Advanced Video Coding\nDuration                                 : 2h 1mn\nBit rate                                 : 1 187 Kbps\nWidth                                    : 1 280 pixels\nHeight                                   : 720 pixels\nDisplay aspect ratio                     : 16:9\nOriginal display aspect ratio            : 16:9\nFrame rate mode                          : Constant\nFrame rate                               : 29.970 fps\nColor space                              : YUV\nChroma subsampling                       : 4:2:0\nBit depth                                : 8 bits\nScan type                                : Progressive\nBits/(Pixel*Frame)                       : 0.043\nStream size                              : 1.01 GiB (90%)\n\nAudio\nID                                       : 2\nFormat                                   : AAC\nFormat/Info                              : Advanced Audio Codec\nFormat profile                           : LC\nCodec ID                                 : 40\nDuration                                 : 2h 1mn\nBit rate mode                            : Constant\nBit rate                                 : 128 Kbps\nChannel(s)                               : 2 channels\nChannel positions                        : Front: L R\nSampling rate                            : 44.1 KHz\nCompression mode                         : Lossy\nStream size                              : 111 MiB (10%)","torrent":{"xt":"urn:btih:db0205cc8bd4cdc44f4b31ee1cb92e1e62aa6e9f","amp;dn":"Hellboy%282004%29Mp-4%5BDascubadude%5D","amp;tr":["udp%3A%2F%2Ftracker.openbittorrent.com%3A80","udp%3A%2F%2Fopen.demonii.com%3A1337","udp%3A%2F%2Ftracker.coppersurfer.tk%3A6969","udp%3A%2F%2Fexodus.desync.com%3A6969"],"infoHash":"db0205cc8bd4cdc44f4b31ee1cb92e1e62aa6e9f","infoHashBuffer":{"type":"Buffer","data":[219,2,5,204,139,212,205,196,79,75,49,238,28,185,46,30,98,170,110,159]},"announce":[],"urlList":[]}}